<svg width="159" height="36" viewBox="0 0 159 36" fill="none" xmlns="http://www.w3.org/2000/svg">
<path d="M72.1918 33.7204C71.9563 31.9234 71.3357 29.9881 70.3298 27.9146C69.3239 25.8134 67.8899 23.8643 66.028 22.0672C64.1874 20.2701 62.3468 19.1228 60.5062 18.6252C58.6656 18.1275 58.687 17.4363 60.5062 16.8834C62.3254 16.3304 64.0697 15.3075 65.739 13.8146C67.4298 12.294 68.8423 10.4693 69.9766 8.34045C71.1324 6.15633 71.8707 3.99986 72.1918 1.87104C72.5128 -0.257779 73.3475 0.488691 73.5401 1.87104C73.7327 3.25339 74.1179 4.67722 74.6958 6.14251C75.2737 7.58016 76.012 8.96251 76.9109 10.2896C77.8312 11.589 78.8585 12.764 79.9928 13.8146C81.6836 15.3628 83.4065 16.3857 85.1614 16.8834C86.9164 17.381 86.3385 18.321 85.1614 18.6252C83.9843 18.9293 82.7644 19.5513 81.5017 20.4913C80.2603 21.4313 79.1046 22.551 78.0345 23.8504C76.9644 25.1222 76.0869 26.4631 75.4021 27.8731C74.3962 29.9466 73.7755 31.8957 73.5401 33.7204C73.3047 35.5451 72.4272 35.5175 72.1918 33.7204Z" fill="#AC77FF"/>
<path d="M158.195 29.8745V35.0785H139.547V29.8745H158.195ZM141.571 0V35.0785H134.946V0H141.571ZM155.762 14.4795V19.563H139.547V14.4795H155.762ZM158.123 0V5.22804H139.547V0H158.123Z" fill="white"/>
<path d="M94.6631 0H100.397L109.986 26.4052L119.55 0H125.309L112.275 35.0785H107.673L94.6631 0ZM91.772 0H97.3855L98.3974 24.261V35.0785H91.772V0ZM122.562 0H128.2V35.0785H121.574V24.261L122.562 0Z" fill="white"/>
<path d="M27.4453 0H40.1902C42.8564 0 45.1452 0.401539 47.0565 1.20462C48.9678 2.0077 50.4375 3.19625 51.4654 4.77029C52.4933 6.34432 53.0073 8.27974 53.0073 10.5766C53.0073 12.3915 52.6861 13.9655 52.0436 15.2987C51.4012 16.6318 50.4937 17.748 49.3212 18.6475C48.1648 19.5469 46.7995 20.2537 45.2255 20.7676L43.1535 21.8277H31.9024L31.8542 16.5996H40.2625C41.6277 16.5996 42.76 16.3587 43.6595 15.8769C44.5589 15.395 45.2335 14.7285 45.6832 13.8772C46.149 13.0259 46.3819 12.0542 46.3819 10.962C46.3819 9.78953 46.1571 8.77765 45.7073 7.92639C45.2576 7.05906 44.575 6.39251 43.6595 5.92672C42.744 5.46094 41.5875 5.22804 40.1902 5.22804H34.0707V35.0785H27.4453V0ZM47.2492 35.0785L39.1301 19.3703L46.141 19.3462L54.3565 34.7412V35.0785H47.2492Z" fill="white"/>
<path d="M6.94278 0V35.0785H0.317383V0H6.94278ZM21.085 15.1541V20.3821H5.20813V15.1541H21.085ZM22.9401 0V5.22804H5.20813V0H22.9401Z" fill="white"/>
</svg>
