<svg width="149" height="33" viewBox="0 0 149 33" fill="none" xmlns="http://www.w3.org/2000/svg">
<path d="M67.6156 31.7223C67.3942 30.0317 66.8103 28.2111 65.864 26.2604C64.9177 24.2837 63.5687 22.4501 61.8171 20.7595C60.0855 19.069 58.354 17.9896 56.6225 17.5214C54.891 17.0533 54.9111 16.4031 56.6225 15.8829C58.3339 15.3627 59.9748 14.4004 61.5453 12.9959C63.1358 11.5654 64.4647 9.84881 65.5318 7.84613C66.619 5.79143 67.3136 3.76274 67.6156 1.76006C67.9177 -0.242625 68.7029 0.459615 68.8841 1.76006C69.0653 3.0605 69.4277 4.39996 69.9713 5.77843C70.5149 7.13089 71.2096 8.43133 72.0552 9.67976C72.9209 10.9022 73.8874 12.0076 74.9545 12.9959C76.5451 14.4524 78.1658 15.4147 79.8168 15.8829C81.4678 16.351 80.9242 17.2353 79.8168 17.5214C78.7095 17.8075 77.5618 18.3927 76.3739 19.277C75.2061 20.1613 74.1189 21.2147 73.1122 22.4371C72.1055 23.6335 71.28 24.8949 70.6357 26.2214C69.6894 28.1721 69.1056 30.0057 68.8841 31.7223C68.6626 33.4389 67.8371 33.4129 67.6156 31.7223Z" fill="#AC77FF"/>
<path d="M148.523 28.1044V33H130.98V28.1044H148.523ZM132.884 0V33H126.651V0H132.884ZM146.233 13.6216V18.4038H130.98V13.6216H146.233ZM148.455 0V4.91827H130.98V0H148.455Z" fill="#151515"/>
<path d="M88.7554 0H94.1497L103.17 24.8406L112.168 0H117.585L105.323 33H100.994L88.7554 0ZM86.0357 0H91.3166L92.2685 22.8235V33H86.0357V0ZM115.001 0H120.305V33H114.072V22.8235L115.001 0Z" fill="#151515"/>
<path d="M25.5206 0H37.5103C40.0185 0 42.1717 0.377747 43.9698 1.13324C45.7679 1.88874 47.1504 3.00687 48.1174 4.48763C49.0845 5.9684 49.568 7.78914 49.568 9.94986C49.568 11.6573 49.2658 13.138 48.6614 14.3922C48.057 15.6463 47.2033 16.6964 46.1003 17.5426C45.0124 18.3887 43.728 19.0536 42.2473 19.5371L40.2981 20.5343H29.7136L29.6683 15.6161H37.5783C38.8626 15.6161 39.9279 15.3894 40.774 14.9361C41.6202 14.4828 42.2548 13.8558 42.6779 13.0549C43.1161 12.2541 43.3352 11.34 43.3352 10.3125C43.3352 9.20947 43.1236 8.25755 42.7005 7.45673C42.2775 6.64079 41.6353 6.01373 40.774 5.57555C39.9128 5.13736 38.8249 4.91827 37.5103 4.91827H31.7534V33H25.5206V0ZM44.1511 33L36.5131 18.2225L43.1085 18.1999L50.8372 32.6827V33H44.1511Z" fill="#151515"/>
<path d="M6.23283 0V33H7.62939e-06V0H6.23283ZM19.5371 14.2562V19.1744H4.60097V14.2562H19.5371ZM21.2823 0V4.91827H4.60097V0H21.2823Z" fill="#151515"/>
</svg>
